<svg xmlns="http://www.w3.org/2000/svg" viewBox="0 0 600 140">
  <!-- 横版：完整图形 + 完整字 -->
  <g transform="translate(8,10) scale(1.0)">
    <g stroke="#2c5238" fill="none" stroke-linecap="round" transform="scale(.92)">
      <path d="M91.13 81.80 A 38 38 0 1 1 91.13 38.20" stroke-width="6.5"/>
      <path d="M95.94 80.75 A 41.5 41.5 0 1 1 95.94 39.25" stroke-width="1" opacity=".45"/>
      <path d="M89.88 77.25 A 34.5 34.5 0 1 1 89.88 42.75" stroke-width="1" opacity=".38"/>
      <path d="M82.12 75.49 A 27 27 0 1 1 82.12 44.51" stroke-width="5.5" opacity=".85"/>
      <path d="M85.98 75.00 A 30 30 0 1 1 85.98 45.00" stroke-width=".9" opacity=".35"/>
      <path d="M73.11 69.18 A 16 16 0 1 1 73.11 50.82" stroke-width="5" opacity=".66"/>
    </g>
    <g transform="scale(.92)">
      <circle cx="66.6" cy="97.4" r="1.1" fill="#1f3a28" opacity=".55"/>
      <circle cx="27.1" cy="79.0" r="1.2" fill="#e8dcc2" opacity=".5"/>
      <circle cx="27.1" cy="41.0" r="1.0" fill="#1f3a28" opacity=".5"/>
      <circle cx="69.8" cy="23.3" r="1.1" fill="#e8dcc2" opacity=".45"/>
      <circle cx="33.4" cy="55.3" r="1.1" fill="#1f3a28" opacity=".5"/>
      <circle cx="98" cy="60" r="5.5" fill="#c9a23e"/>
    </g>
  </g>
  <text x="126" y="80" font-family="Georgia, 'Times New Roman', serif" font-style="italic"
    font-weight="700" font-size="50" fill="#2c5238">ChenListen</text>
  <text x="130" y="106" font-family="-apple-system, Helvetica, sans-serif" font-size="10.5"
    letter-spacing="6" fill="#8a7a55">DRUMS · ART · LISTEN</text>
</svg>
